<?xml version="1.0" encoding="UTF-8"?>
<svg xmlns="http://www.w3.org/2000/svg" viewBox="-18.300 -18.300 36.600 36.600" data-teeth="29" data-material="blued" role="img" aria-label="29-tooth blued mechanical watch gear">
  <title>29 tooth blued SCIENTIA gear asset</title>
  <metadata>Exact involute tooth count: 29; pressure angle: 20 degrees; module: 1 normalized; original deterministic artwork.</metadata>
  <defs>
    <linearGradient id="metal" x1="0" y1="0" x2="1" y2="1">
      <stop offset="0" stop-color="#020617"/><stop offset=".16" stop-color="#92cbff"/><stop offset=".36" stop-color="#071f54"/><stop offset=".58" stop-color="#b9e7ff"/><stop offset=".8" stop-color="#174eaa"/><stop offset="1" stop-color="#010208"/>
    </linearGradient>
    <radialGradient id="hub" cx="34%" cy="28%"><stop offset="0" stop-color="#92cbff"/><stop offset=".28" stop-color="#174eaa"/><stop offset=".66" stop-color="#071f54"/><stop offset="1" stop-color="#020617"/></radialGradient>
    <radialGradient id="jewel" cx="32%" cy="25%"><stop offset="0" stop-color="#fff"/><stop offset=".18" stop-color="#bc8cff"/><stop offset=".55" stop-color="#2d0c78"/><stop offset="1" stop-color="#050208"/></radialGradient>
    <filter id="finish" x="-18%" y="-18%" width="136%" height="136%">
      <feTurbulence type="fractalNoise" baseFrequency=".9" numOctaves="2" seed="29" result="grain"/>
      <feComposite in="grain" in2="SourceAlpha" operator="in" result="cutGrain"/>
      <feColorMatrix in="cutGrain" values="1 0 0 0 .25  0 1 0 0 .2  0 0 1 0 .12  0 0 0 .16 0" result="tintedGrain"/>
      <feMerge><feMergeNode in="SourceGraphic"/><feMergeNode in="tintedGrain"/></feMerge>
      <feDropShadow dx=".25" dy=".5" stdDeviation=".55" flood-color="#000" flood-opacity=".72"/>
    </filter>
    <path id="tooth" d="M-1.4326 -13.1723L-0.9144 -13.2184L-0.9404 -13.5931L-0.9069 -13.9710L-0.8217 -14.3518L-0.7003 -14.7336L-0.5479 -15.1152L-0.3671 -15.4957L0.3671 -15.4957L0.3671 -15.4957L0.5479 -15.1152L0.7003 -14.7336L0.8217 -14.3518L0.9069 -13.9710L0.9404 -13.5931L0.9144 -13.2184L1.4326 -13.1723Z"/>
    <g id="teeth"><use href="#tooth" transform="rotate(0.00000000)" /><use href="#tooth" transform="rotate(12.41379310)" /><use href="#tooth" transform="rotate(24.82758621)" /><use href="#tooth" transform="rotate(37.24137931)" /><use href="#tooth" transform="rotate(49.65517241)" /><use href="#tooth" transform="rotate(62.06896552)" /><use href="#tooth" transform="rotate(74.48275862)" /><use href="#tooth" transform="rotate(86.89655172)" /><use href="#tooth" transform="rotate(99.31034483)" /><use href="#tooth" transform="rotate(111.72413793)" /><use href="#tooth" transform="rotate(124.13793103)" /><use href="#tooth" transform="rotate(136.55172414)" /><use href="#tooth" transform="rotate(148.96551724)" /><use href="#tooth" transform="rotate(161.37931034)" /><use href="#tooth" transform="rotate(173.79310345)" /><use href="#tooth" transform="rotate(186.20689655)" /><use href="#tooth" transform="rotate(198.62068966)" /><use href="#tooth" transform="rotate(211.03448276)" /><use href="#tooth" transform="rotate(223.44827586)" /><use href="#tooth" transform="rotate(235.86206897)" /><use href="#tooth" transform="rotate(248.27586207)" /><use href="#tooth" transform="rotate(260.68965517)" /><use href="#tooth" transform="rotate(273.10344828)" /><use href="#tooth" transform="rotate(285.51724138)" /><use href="#tooth" transform="rotate(297.93103448)" /><use href="#tooth" transform="rotate(310.34482759)" /><use href="#tooth" transform="rotate(322.75862069)" /><use href="#tooth" transform="rotate(335.17241379)" /><use href="#tooth" transform="rotate(347.58620690)" /></g>
    <g id="silhouette"><circle r="13.2500"/><use href="#teeth"/></g>
    <mask id="skeleton">
      <use href="#silhouette" fill="#fff"/>
      <circle r="9.1425" fill="#000"/>
      <g fill="#fff"><path d="M0 -2.120 C0.616 -3.840 0.696 -7.497 0 -9.508 C-0.715 -7.497 -0.616 -3.840 0 -2.120Z" transform="rotate(0)" /><path d="M0 -2.120 C0.616 -3.840 0.696 -7.497 0 -9.508 C-0.715 -7.497 -0.616 -3.840 0 -2.120Z" transform="rotate(60)" /><path d="M0 -2.120 C0.616 -3.840 0.696 -7.497 0 -9.508 C-0.715 -7.497 -0.616 -3.840 0 -2.120Z" transform="rotate(120)" /><path d="M0 -2.120 C0.616 -3.840 0.696 -7.497 0 -9.508 C-0.715 -7.497 -0.616 -3.840 0 -2.120Z" transform="rotate(180)" /><path d="M0 -2.120 C0.616 -3.840 0.696 -7.497 0 -9.508 C-0.715 -7.497 -0.616 -3.840 0 -2.120Z" transform="rotate(240)" /><path d="M0 -2.120 C0.616 -3.840 0.696 -7.497 0 -9.508 C-0.715 -7.497 -0.616 -3.840 0 -2.120Z" transform="rotate(300)" /><circle r="2.1200"/></g>
    </mask>
  </defs>
  <g filter="url(#finish)">
    <g mask="url(#skeleton)" fill="url(#metal)"><use href="#silhouette"/></g>
    <circle r="12.6537" fill="none" stroke="#b9e7ff" stroke-width="0.2200" opacity=".82"/>
    <circle r="9.1425" fill="none" stroke="#071f54" stroke-width="0.2915"/>
    <g fill="none" stroke="#b9e7ff" stroke-width="0.1300" opacity=".72"><path d="M0 -2.290 Q1.619 -3.801 0 -7.040 Q-1.619 -3.801 0 -2.290" transform="rotate(0)" /><path d="M0 -2.290 Q1.619 -3.801 0 -7.040 Q-1.619 -3.801 0 -2.290" transform="rotate(60)" /><path d="M0 -2.290 Q1.619 -3.801 0 -7.040 Q-1.619 -3.801 0 -2.290" transform="rotate(120)" /><path d="M0 -2.290 Q1.619 -3.801 0 -7.040 Q-1.619 -3.801 0 -2.290" transform="rotate(180)" /><path d="M0 -2.290 Q1.619 -3.801 0 -7.040 Q-1.619 -3.801 0 -2.290" transform="rotate(240)" /><path d="M0 -2.290 Q1.619 -3.801 0 -7.040 Q-1.619 -3.801 0 -2.290" transform="rotate(300)" /></g>
    <circle r="2.4592" fill="url(#hub)" stroke="#b9e7ff" stroke-width="0.2332"/>
    <circle r="0.9752" fill="url(#jewel)" stroke="#92cbff" stroke-width="0.1484"/>
    <circle r="14.5000" fill="none" stroke="#92cbff" stroke-width=".12" opacity=".28" stroke-dasharray=".45 .8"/>
  </g>
</svg>