<?xml version="1.0" encoding="UTF-8"?>
<svg xmlns="http://www.w3.org/2000/svg" viewBox="-85.300 -85.300 170.600 170.600" data-teeth="163" data-material="gold" role="img" aria-label="163-tooth gold mechanical watch gear">
  <title>163 tooth gold SCIENTIA gear asset</title>
  <metadata>Exact involute tooth count: 163; pressure angle: 20 degrees; module: 1 normalized; original deterministic artwork.</metadata>
  <defs>
    <linearGradient id="metal" x1="0" y1="0" x2="1" y2="1">
      <stop offset="0" stop-color="#2e1606"/><stop offset=".16" stop-color="#ffe6a0"/><stop offset=".36" stop-color="#6f3510"/><stop offset=".58" stop-color="#fff0b2"/><stop offset=".8" stop-color="#bd7428"/><stop offset="1" stop-color="#120704"/>
    </linearGradient>
    <radialGradient id="hub" cx="34%" cy="28%"><stop offset="0" stop-color="#ffe6a0"/><stop offset=".28" stop-color="#bd7428"/><stop offset=".66" stop-color="#6f3510"/><stop offset="1" stop-color="#2e1606"/></radialGradient>
    <radialGradient id="jewel" cx="32%" cy="25%"><stop offset="0" stop-color="#fff"/><stop offset=".18" stop-color="#ffb570"/><stop offset=".55" stop-color="#8e180d"/><stop offset="1" stop-color="#050208"/></radialGradient>
    <filter id="finish" x="-18%" y="-18%" width="136%" height="136%">
      <feTurbulence type="fractalNoise" baseFrequency=".9" numOctaves="2" seed="163" result="grain"/>
      <feComposite in="grain" in2="SourceAlpha" operator="in" result="cutGrain"/>
      <feColorMatrix in="cutGrain" values="1 0 0 0 .25  0 1 0 0 .2  0 0 1 0 .12  0 0 0 .16 0" result="tintedGrain"/>
      <feMerge><feMergeNode in="SourceGraphic"/><feMergeNode in="tintedGrain"/></feMerge>
      <feDropShadow dx=".25" dy=".5" stdDeviation=".55" flood-color="#000" flood-opacity=".72"/>
    </filter>
    <path id="tooth" d="M-1.5466 -80.2351L-1.1938 -80.2411L-1.1938 -80.2411L-1.0549 -80.6931L-0.9068 -81.1449L-0.7497 -81.5966L-0.5841 -82.0479L-0.4102 -82.4990L0.4102 -82.4990L0.4102 -82.4990L0.5841 -82.0479L0.7497 -81.5966L0.9068 -81.1449L1.0549 -80.6931L1.1938 -80.2411L1.1938 -80.2411L1.5466 -80.2351Z"/>
    <g id="teeth"><use href="#tooth" transform="rotate(0.00000000)" /><use href="#tooth" transform="rotate(2.20858896)" /><use href="#tooth" transform="rotate(4.41717791)" /><use href="#tooth" transform="rotate(6.62576687)" /><use href="#tooth" transform="rotate(8.83435583)" /><use href="#tooth" transform="rotate(11.04294479)" /><use href="#tooth" transform="rotate(13.25153374)" /><use href="#tooth" transform="rotate(15.46012270)" /><use href="#tooth" transform="rotate(17.66871166)" /><use href="#tooth" transform="rotate(19.87730061)" /><use href="#tooth" transform="rotate(22.08588957)" /><use href="#tooth" transform="rotate(24.29447853)" /><use href="#tooth" transform="rotate(26.50306748)" /><use href="#tooth" transform="rotate(28.71165644)" /><use href="#tooth" transform="rotate(30.92024540)" /><use href="#tooth" transform="rotate(33.12883436)" /><use href="#tooth" transform="rotate(35.33742331)" /><use href="#tooth" transform="rotate(37.54601227)" /><use href="#tooth" transform="rotate(39.75460123)" /><use href="#tooth" transform="rotate(41.96319018)" /><use href="#tooth" transform="rotate(44.17177914)" /><use href="#tooth" transform="rotate(46.38036810)" /><use href="#tooth" transform="rotate(48.58895706)" /><use href="#tooth" transform="rotate(50.79754601)" /><use href="#tooth" transform="rotate(53.00613497)" /><use href="#tooth" transform="rotate(55.21472393)" /><use href="#tooth" transform="rotate(57.42331288)" /><use href="#tooth" transform="rotate(59.63190184)" /><use href="#tooth" transform="rotate(61.84049080)" /><use href="#tooth" transform="rotate(64.04907975)" /><use href="#tooth" transform="rotate(66.25766871)" /><use href="#tooth" transform="rotate(68.46625767)" /><use href="#tooth" transform="rotate(70.67484663)" /><use href="#tooth" transform="rotate(72.88343558)" /><use href="#tooth" transform="rotate(75.09202454)" /><use href="#tooth" transform="rotate(77.30061350)" /><use href="#tooth" transform="rotate(79.50920245)" /><use href="#tooth" transform="rotate(81.71779141)" /><use href="#tooth" transform="rotate(83.92638037)" /><use href="#tooth" transform="rotate(86.13496933)" /><use href="#tooth" transform="rotate(88.34355828)" /><use href="#tooth" transform="rotate(90.55214724)" /><use href="#tooth" transform="rotate(92.76073620)" /><use href="#tooth" transform="rotate(94.96932515)" /><use href="#tooth" transform="rotate(97.17791411)" /><use href="#tooth" transform="rotate(99.38650307)" /><use href="#tooth" transform="rotate(101.59509202)" /><use href="#tooth" transform="rotate(103.80368098)" /><use href="#tooth" transform="rotate(106.01226994)" /><use href="#tooth" transform="rotate(108.22085890)" /><use href="#tooth" transform="rotate(110.42944785)" /><use href="#tooth" transform="rotate(112.63803681)" /><use href="#tooth" transform="rotate(114.84662577)" /><use href="#tooth" transform="rotate(117.05521472)" /><use href="#tooth" transform="rotate(119.26380368)" /><use href="#tooth" transform="rotate(121.47239264)" /><use href="#tooth" transform="rotate(123.68098160)" /><use href="#tooth" transform="rotate(125.88957055)" /><use href="#tooth" transform="rotate(128.09815951)" /><use href="#tooth" transform="rotate(130.30674847)" /><use href="#tooth" transform="rotate(132.51533742)" /><use href="#tooth" transform="rotate(134.72392638)" /><use href="#tooth" transform="rotate(136.93251534)" /><use href="#tooth" transform="rotate(139.14110429)" /><use href="#tooth" transform="rotate(141.34969325)" /><use href="#tooth" transform="rotate(143.55828221)" /><use href="#tooth" transform="rotate(145.76687117)" /><use href="#tooth" transform="rotate(147.97546012)" /><use href="#tooth" transform="rotate(150.18404908)" /><use href="#tooth" transform="rotate(152.39263804)" /><use href="#tooth" transform="rotate(154.60122699)" /><use href="#tooth" transform="rotate(156.80981595)" /><use href="#tooth" transform="rotate(159.01840491)" /><use href="#tooth" transform="rotate(161.22699387)" /><use href="#tooth" transform="rotate(163.43558282)" /><use href="#tooth" transform="rotate(165.64417178)" /><use href="#tooth" transform="rotate(167.85276074)" /><use href="#tooth" transform="rotate(170.06134969)" /><use href="#tooth" transform="rotate(172.26993865)" /><use href="#tooth" transform="rotate(174.47852761)" /><use href="#tooth" transform="rotate(176.68711656)" /><use href="#tooth" transform="rotate(178.89570552)" /><use href="#tooth" transform="rotate(181.10429448)" /><use href="#tooth" transform="rotate(183.31288344)" /><use href="#tooth" transform="rotate(185.52147239)" /><use href="#tooth" transform="rotate(187.73006135)" /><use href="#tooth" transform="rotate(189.93865031)" /><use href="#tooth" transform="rotate(192.14723926)" /><use href="#tooth" transform="rotate(194.35582822)" /><use href="#tooth" transform="rotate(196.56441718)" /><use href="#tooth" transform="rotate(198.77300613)" /><use href="#tooth" transform="rotate(200.98159509)" /><use href="#tooth" transform="rotate(203.19018405)" /><use href="#tooth" transform="rotate(205.39877301)" /><use href="#tooth" transform="rotate(207.60736196)" /><use href="#tooth" transform="rotate(209.81595092)" /><use href="#tooth" transform="rotate(212.02453988)" /><use href="#tooth" transform="rotate(214.23312883)" /><use href="#tooth" transform="rotate(216.44171779)" /><use href="#tooth" transform="rotate(218.65030675)" /><use href="#tooth" transform="rotate(220.85889571)" /><use href="#tooth" transform="rotate(223.06748466)" /><use href="#tooth" transform="rotate(225.27607362)" /><use href="#tooth" transform="rotate(227.48466258)" /><use href="#tooth" transform="rotate(229.69325153)" /><use href="#tooth" transform="rotate(231.90184049)" /><use href="#tooth" transform="rotate(234.11042945)" /><use href="#tooth" transform="rotate(236.31901840)" /><use href="#tooth" transform="rotate(238.52760736)" /><use href="#tooth" transform="rotate(240.73619632)" /><use href="#tooth" transform="rotate(242.94478528)" /><use href="#tooth" transform="rotate(245.15337423)" /><use href="#tooth" transform="rotate(247.36196319)" /><use href="#tooth" transform="rotate(249.57055215)" /><use href="#tooth" transform="rotate(251.77914110)" /><use href="#tooth" transform="rotate(253.98773006)" /><use href="#tooth" transform="rotate(256.19631902)" /><use href="#tooth" transform="rotate(258.40490798)" /><use href="#tooth" transform="rotate(260.61349693)" /><use href="#tooth" transform="rotate(262.82208589)" /><use href="#tooth" transform="rotate(265.03067485)" /><use href="#tooth" transform="rotate(267.23926380)" /><use href="#tooth" transform="rotate(269.44785276)" /><use href="#tooth" transform="rotate(271.65644172)" /><use href="#tooth" transform="rotate(273.86503067)" /><use href="#tooth" transform="rotate(276.07361963)" /><use href="#tooth" transform="rotate(278.28220859)" /><use href="#tooth" transform="rotate(280.49079755)" /><use href="#tooth" transform="rotate(282.69938650)" /><use href="#tooth" transform="rotate(284.90797546)" /><use href="#tooth" transform="rotate(287.11656442)" /><use href="#tooth" transform="rotate(289.32515337)" /><use href="#tooth" transform="rotate(291.53374233)" /><use href="#tooth" transform="rotate(293.74233129)" /><use href="#tooth" transform="rotate(295.95092025)" /><use href="#tooth" transform="rotate(298.15950920)" /><use href="#tooth" transform="rotate(300.36809816)" /><use href="#tooth" transform="rotate(302.57668712)" /><use href="#tooth" transform="rotate(304.78527607)" /><use href="#tooth" transform="rotate(306.99386503)" /><use href="#tooth" transform="rotate(309.20245399)" /><use href="#tooth" transform="rotate(311.41104294)" /><use href="#tooth" transform="rotate(313.61963190)" /><use href="#tooth" transform="rotate(315.82822086)" /><use href="#tooth" transform="rotate(318.03680982)" /><use href="#tooth" transform="rotate(320.24539877)" /><use href="#tooth" transform="rotate(322.45398773)" /><use href="#tooth" transform="rotate(324.66257669)" /><use href="#tooth" transform="rotate(326.87116564)" /><use href="#tooth" transform="rotate(329.07975460)" /><use href="#tooth" transform="rotate(331.28834356)" /><use href="#tooth" transform="rotate(333.49693252)" /><use href="#tooth" transform="rotate(335.70552147)" /><use href="#tooth" transform="rotate(337.91411043)" /><use href="#tooth" transform="rotate(340.12269939)" /><use href="#tooth" transform="rotate(342.33128834)" /><use href="#tooth" transform="rotate(344.53987730)" /><use href="#tooth" transform="rotate(346.74846626)" /><use href="#tooth" transform="rotate(348.95705521)" /><use href="#tooth" transform="rotate(351.16564417)" /><use href="#tooth" transform="rotate(353.37423313)" /><use href="#tooth" transform="rotate(355.58282209)" /><use href="#tooth" transform="rotate(357.79141104)" /></g>
    <g id="silhouette"><circle r="80.2500"/><use href="#teeth"/></g>
    <mask id="skeleton">
      <use href="#silhouette" fill="#fff"/>
      <circle r="55.3725" fill="#000"/>
      <g fill="#fff"><path d="M0 -12.840 C3.732 -23.256 4.213 -45.405 0 -57.587 C-4.333 -45.405 -3.732 -23.256 0 -12.840Z" transform="rotate(0)" /><path d="M0 -12.840 C3.732 -23.256 4.213 -45.405 0 -57.587 C-4.333 -45.405 -3.732 -23.256 0 -12.840Z" transform="rotate(36)" /><path d="M0 -12.840 C3.732 -23.256 4.213 -45.405 0 -57.587 C-4.333 -45.405 -3.732 -23.256 0 -12.840Z" transform="rotate(72)" /><path d="M0 -12.840 C3.732 -23.256 4.213 -45.405 0 -57.587 C-4.333 -45.405 -3.732 -23.256 0 -12.840Z" transform="rotate(108)" /><path d="M0 -12.840 C3.732 -23.256 4.213 -45.405 0 -57.587 C-4.333 -45.405 -3.732 -23.256 0 -12.840Z" transform="rotate(144)" /><path d="M0 -12.840 C3.732 -23.256 4.213 -45.405 0 -57.587 C-4.333 -45.405 -3.732 -23.256 0 -12.840Z" transform="rotate(180)" /><path d="M0 -12.840 C3.732 -23.256 4.213 -45.405 0 -57.587 C-4.333 -45.405 -3.732 -23.256 0 -12.840Z" transform="rotate(216)" /><path d="M0 -12.840 C3.732 -23.256 4.213 -45.405 0 -57.587 C-4.333 -45.405 -3.732 -23.256 0 -12.840Z" transform="rotate(252)" /><path d="M0 -12.840 C3.732 -23.256 4.213 -45.405 0 -57.587 C-4.333 -45.405 -3.732 -23.256 0 -12.840Z" transform="rotate(288)" /><path d="M0 -12.840 C3.732 -23.256 4.213 -45.405 0 -57.587 C-4.333 -45.405 -3.732 -23.256 0 -12.840Z" transform="rotate(324)" /><circle r="12.8400"/></g>
    </mask>
  </defs>
  <g filter="url(#finish)">
    <g mask="url(#skeleton)" fill="url(#metal)"><use href="#silhouette"/></g>
    <circle r="76.6388" fill="none" stroke="#fff0b2" stroke-width="0.9630" opacity=".82"/>
    <circle r="55.3725" fill="none" stroke="#6f3510" stroke-width="1.7655"/>
    <g fill="none" stroke="#fff0b2" stroke-width="0.6420" opacity=".72"><path d="M0 -13.867 Q9.806 -23.024 0 -42.637 Q-9.806 -23.024 0 -13.867" transform="rotate(0)" /><path d="M0 -13.867 Q9.806 -23.024 0 -42.637 Q-9.806 -23.024 0 -13.867" transform="rotate(36)" /><path d="M0 -13.867 Q9.806 -23.024 0 -42.637 Q-9.806 -23.024 0 -13.867" transform="rotate(72)" /><path d="M0 -13.867 Q9.806 -23.024 0 -42.637 Q-9.806 -23.024 0 -13.867" transform="rotate(108)" /><path d="M0 -13.867 Q9.806 -23.024 0 -42.637 Q-9.806 -23.024 0 -13.867" transform="rotate(144)" /><path d="M0 -13.867 Q9.806 -23.024 0 -42.637 Q-9.806 -23.024 0 -13.867" transform="rotate(180)" /><path d="M0 -13.867 Q9.806 -23.024 0 -42.637 Q-9.806 -23.024 0 -13.867" transform="rotate(216)" /><path d="M0 -13.867 Q9.806 -23.024 0 -42.637 Q-9.806 -23.024 0 -13.867" transform="rotate(252)" /><path d="M0 -13.867 Q9.806 -23.024 0 -42.637 Q-9.806 -23.024 0 -13.867" transform="rotate(288)" /><path d="M0 -13.867 Q9.806 -23.024 0 -42.637 Q-9.806 -23.024 0 -13.867" transform="rotate(324)" /></g>
    <circle r="14.8944" fill="url(#hub)" stroke="#fff0b2" stroke-width="1.4124"/>
    <circle r="5.9064" fill="url(#jewel)" stroke="#ffe6a0" stroke-width="0.8988"/>
    <circle r="81.5000" fill="none" stroke="#ffe6a0" stroke-width=".12" opacity=".28" stroke-dasharray=".45 .8"/>
  </g>
</svg>