<?xml version="1.0" encoding="UTF-8"?>
<svg xmlns="http://www.w3.org/2000/svg" viewBox="-35.800 -35.800 71.600 71.600" data-teeth="64" data-material="gold" role="img" aria-label="64-tooth gold mechanical watch gear">
  <title>64 tooth gold SCIENTIA gear asset</title>
  <metadata>Exact involute tooth count: 64; pressure angle: 20 degrees; module: 1 normalized; original deterministic artwork.</metadata>
  <defs>
    <linearGradient id="metal" x1="0" y1="0" x2="1" y2="1">
      <stop offset="0" stop-color="#2e1606"/><stop offset=".16" stop-color="#ffe6a0"/><stop offset=".36" stop-color="#6f3510"/><stop offset=".58" stop-color="#fff0b2"/><stop offset=".8" stop-color="#bd7428"/><stop offset="1" stop-color="#120704"/>
    </linearGradient>
    <radialGradient id="hub" cx="34%" cy="28%"><stop offset="0" stop-color="#ffe6a0"/><stop offset=".28" stop-color="#bd7428"/><stop offset=".66" stop-color="#6f3510"/><stop offset="1" stop-color="#2e1606"/></radialGradient>
    <radialGradient id="jewel" cx="32%" cy="25%"><stop offset="0" stop-color="#fff"/><stop offset=".18" stop-color="#ffb570"/><stop offset=".55" stop-color="#8e180d"/><stop offset="1" stop-color="#050208"/></radialGradient>
    <filter id="finish" x="-18%" y="-18%" width="136%" height="136%">
      <feTurbulence type="fractalNoise" baseFrequency=".9" numOctaves="2" seed="64" result="grain"/>
      <feComposite in="grain" in2="SourceAlpha" operator="in" result="cutGrain"/>
      <feColorMatrix in="cutGrain" values="1 0 0 0 .25  0 1 0 0 .2  0 0 1 0 .12  0 0 0 .16 0" result="tintedGrain"/>
      <feMerge><feMergeNode in="SourceGraphic"/><feMergeNode in="tintedGrain"/></feMerge>
      <feDropShadow dx=".25" dy=".5" stdDeviation=".55" flood-color="#000" flood-opacity=".72"/>
    </filter>
    <path id="tooth" d="M-1.5088 -30.7130L-1.1152 -30.7298L-1.1152 -30.7298L-1.0199 -31.1833L-0.8973 -31.6373L-0.7508 -32.0912L-0.5828 -32.5448L-0.3945 -32.9976L0.3945 -32.9976L0.3945 -32.9976L0.5828 -32.5448L0.7508 -32.0912L0.8973 -31.6373L1.0199 -31.1833L1.1152 -30.7298L1.1152 -30.7298L1.5088 -30.7130Z"/>
    <g id="teeth"><use href="#tooth" transform="rotate(0.00000000)" /><use href="#tooth" transform="rotate(5.62500000)" /><use href="#tooth" transform="rotate(11.25000000)" /><use href="#tooth" transform="rotate(16.87500000)" /><use href="#tooth" transform="rotate(22.50000000)" /><use href="#tooth" transform="rotate(28.12500000)" /><use href="#tooth" transform="rotate(33.75000000)" /><use href="#tooth" transform="rotate(39.37500000)" /><use href="#tooth" transform="rotate(45.00000000)" /><use href="#tooth" transform="rotate(50.62500000)" /><use href="#tooth" transform="rotate(56.25000000)" /><use href="#tooth" transform="rotate(61.87500000)" /><use href="#tooth" transform="rotate(67.50000000)" /><use href="#tooth" transform="rotate(73.12500000)" /><use href="#tooth" transform="rotate(78.75000000)" /><use href="#tooth" transform="rotate(84.37500000)" /><use href="#tooth" transform="rotate(90.00000000)" /><use href="#tooth" transform="rotate(95.62500000)" /><use href="#tooth" transform="rotate(101.25000000)" /><use href="#tooth" transform="rotate(106.87500000)" /><use href="#tooth" transform="rotate(112.50000000)" /><use href="#tooth" transform="rotate(118.12500000)" /><use href="#tooth" transform="rotate(123.75000000)" /><use href="#tooth" transform="rotate(129.37500000)" /><use href="#tooth" transform="rotate(135.00000000)" /><use href="#tooth" transform="rotate(140.62500000)" /><use href="#tooth" transform="rotate(146.25000000)" /><use href="#tooth" transform="rotate(151.87500000)" /><use href="#tooth" transform="rotate(157.50000000)" /><use href="#tooth" transform="rotate(163.12500000)" /><use href="#tooth" transform="rotate(168.75000000)" /><use href="#tooth" transform="rotate(174.37500000)" /><use href="#tooth" transform="rotate(180.00000000)" /><use href="#tooth" transform="rotate(185.62500000)" /><use href="#tooth" transform="rotate(191.25000000)" /><use href="#tooth" transform="rotate(196.87500000)" /><use href="#tooth" transform="rotate(202.50000000)" /><use href="#tooth" transform="rotate(208.12500000)" /><use href="#tooth" transform="rotate(213.75000000)" /><use href="#tooth" transform="rotate(219.37500000)" /><use href="#tooth" transform="rotate(225.00000000)" /><use href="#tooth" transform="rotate(230.62500000)" /><use href="#tooth" transform="rotate(236.25000000)" /><use href="#tooth" transform="rotate(241.87500000)" /><use href="#tooth" transform="rotate(247.50000000)" /><use href="#tooth" transform="rotate(253.12500000)" /><use href="#tooth" transform="rotate(258.75000000)" /><use href="#tooth" transform="rotate(264.37500000)" /><use href="#tooth" transform="rotate(270.00000000)" /><use href="#tooth" transform="rotate(275.62500000)" /><use href="#tooth" transform="rotate(281.25000000)" /><use href="#tooth" transform="rotate(286.87500000)" /><use href="#tooth" transform="rotate(292.50000000)" /><use href="#tooth" transform="rotate(298.12500000)" /><use href="#tooth" transform="rotate(303.75000000)" /><use href="#tooth" transform="rotate(309.37500000)" /><use href="#tooth" transform="rotate(315.00000000)" /><use href="#tooth" transform="rotate(320.62500000)" /><use href="#tooth" transform="rotate(326.25000000)" /><use href="#tooth" transform="rotate(331.87500000)" /><use href="#tooth" transform="rotate(337.50000000)" /><use href="#tooth" transform="rotate(343.12500000)" /><use href="#tooth" transform="rotate(348.75000000)" /><use href="#tooth" transform="rotate(354.37500000)" /></g>
    <g id="silhouette"><circle r="30.7500"/><use href="#teeth"/></g>
    <mask id="skeleton">
      <use href="#silhouette" fill="#fff"/>
      <circle r="21.2175" fill="#000"/>
      <g fill="#fff"><path d="M0 -4.920 C1.430 -8.911 1.614 -17.398 0 -22.066 C-1.660 -17.398 -1.430 -8.911 0 -4.920Z" transform="rotate(0)" /><path d="M0 -4.920 C1.430 -8.911 1.614 -17.398 0 -22.066 C-1.660 -17.398 -1.430 -8.911 0 -4.920Z" transform="rotate(45)" /><path d="M0 -4.920 C1.430 -8.911 1.614 -17.398 0 -22.066 C-1.660 -17.398 -1.430 -8.911 0 -4.920Z" transform="rotate(90)" /><path d="M0 -4.920 C1.430 -8.911 1.614 -17.398 0 -22.066 C-1.660 -17.398 -1.430 -8.911 0 -4.920Z" transform="rotate(135)" /><path d="M0 -4.920 C1.430 -8.911 1.614 -17.398 0 -22.066 C-1.660 -17.398 -1.430 -8.911 0 -4.920Z" transform="rotate(180)" /><path d="M0 -4.920 C1.430 -8.911 1.614 -17.398 0 -22.066 C-1.660 -17.398 -1.430 -8.911 0 -4.920Z" transform="rotate(225)" /><path d="M0 -4.920 C1.430 -8.911 1.614 -17.398 0 -22.066 C-1.660 -17.398 -1.430 -8.911 0 -4.920Z" transform="rotate(270)" /><path d="M0 -4.920 C1.430 -8.911 1.614 -17.398 0 -22.066 C-1.660 -17.398 -1.430 -8.911 0 -4.920Z" transform="rotate(315)" /><circle r="4.9200"/></g>
    </mask>
  </defs>
  <g filter="url(#finish)">
    <g mask="url(#skeleton)" fill="url(#metal)"><use href="#silhouette"/></g>
    <circle r="29.3662" fill="none" stroke="#fff0b2" stroke-width="0.3690" opacity=".82"/>
    <circle r="21.2175" fill="none" stroke="#6f3510" stroke-width="0.6765"/>
    <g fill="none" stroke="#fff0b2" stroke-width="0.2460" opacity=".72"><path d="M0 -5.314 Q3.758 -8.822 0 -16.337 Q-3.758 -8.822 0 -5.314" transform="rotate(0)" /><path d="M0 -5.314 Q3.758 -8.822 0 -16.337 Q-3.758 -8.822 0 -5.314" transform="rotate(45)" /><path d="M0 -5.314 Q3.758 -8.822 0 -16.337 Q-3.758 -8.822 0 -5.314" transform="rotate(90)" /><path d="M0 -5.314 Q3.758 -8.822 0 -16.337 Q-3.758 -8.822 0 -5.314" transform="rotate(135)" /><path d="M0 -5.314 Q3.758 -8.822 0 -16.337 Q-3.758 -8.822 0 -5.314" transform="rotate(180)" /><path d="M0 -5.314 Q3.758 -8.822 0 -16.337 Q-3.758 -8.822 0 -5.314" transform="rotate(225)" /><path d="M0 -5.314 Q3.758 -8.822 0 -16.337 Q-3.758 -8.822 0 -5.314" transform="rotate(270)" /><path d="M0 -5.314 Q3.758 -8.822 0 -16.337 Q-3.758 -8.822 0 -5.314" transform="rotate(315)" /></g>
    <circle r="5.7072" fill="url(#hub)" stroke="#fff0b2" stroke-width="0.5412"/>
    <circle r="2.2632" fill="url(#jewel)" stroke="#ffe6a0" stroke-width="0.3444"/>
    <circle r="32.0000" fill="none" stroke="#ffe6a0" stroke-width=".12" opacity=".28" stroke-dasharray=".45 .8"/>
  </g>
</svg>