<?xml version="1.0" encoding="UTF-8"?>
<svg xmlns="http://www.w3.org/2000/svg" viewBox="-21.800 -21.800 43.600 43.600" data-teeth="36" data-material="rose" role="img" aria-label="36-tooth rose mechanical watch gear">
  <title>36 tooth rose SCIENTIA gear asset</title>
  <metadata>Exact involute tooth count: 36; pressure angle: 20 degrees; module: 1 normalized; original deterministic artwork.</metadata>
  <defs>
    <linearGradient id="metal" x1="0" y1="0" x2="1" y2="1">
      <stop offset="0" stop-color="#28100c"/><stop offset=".16" stop-color="#ffd0ad"/><stop offset=".36" stop-color="#6f2f22"/><stop offset=".58" stop-color="#ffe1c6"/><stop offset=".8" stop-color="#b8694d"/><stop offset="1" stop-color="#100403"/>
    </linearGradient>
    <radialGradient id="hub" cx="34%" cy="28%"><stop offset="0" stop-color="#ffd0ad"/><stop offset=".28" stop-color="#b8694d"/><stop offset=".66" stop-color="#6f2f22"/><stop offset="1" stop-color="#28100c"/></radialGradient>
    <radialGradient id="jewel" cx="32%" cy="25%"><stop offset="0" stop-color="#fff"/><stop offset=".18" stop-color="#ff789d"/><stop offset=".55" stop-color="#6b0525"/><stop offset="1" stop-color="#050208"/></radialGradient>
    <filter id="finish" x="-18%" y="-18%" width="136%" height="136%">
      <feTurbulence type="fractalNoise" baseFrequency=".9" numOctaves="2" seed="36" result="grain"/>
      <feComposite in="grain" in2="SourceAlpha" operator="in" result="cutGrain"/>
      <feColorMatrix in="cutGrain" values="1 0 0 0 .25  0 1 0 0 .2  0 0 1 0 .12  0 0 0 .16 0" result="tintedGrain"/>
      <feMerge><feMergeNode in="SourceGraphic"/><feMergeNode in="tintedGrain"/></feMerge>
      <feDropShadow dx=".25" dy=".5" stdDeviation=".55" flood-color="#000" flood-opacity=".72"/>
    </filter>
    <path id="tooth" d="M-1.4599 -16.6863L-0.9799 -16.7213L-0.9896 -16.8855L-0.9515 -17.3054L-0.8593 -17.7279L-0.7295 -18.1511L-0.5675 -18.5742L-0.3763 -18.9963L0.3763 -18.9963L0.3763 -18.9963L0.5675 -18.5742L0.7295 -18.1511L0.8593 -17.7279L0.9515 -17.3054L0.9896 -16.8855L0.9799 -16.7213L1.4599 -16.6863Z"/>
    <g id="teeth"><use href="#tooth" transform="rotate(0.00000000)" /><use href="#tooth" transform="rotate(10.00000000)" /><use href="#tooth" transform="rotate(20.00000000)" /><use href="#tooth" transform="rotate(30.00000000)" /><use href="#tooth" transform="rotate(40.00000000)" /><use href="#tooth" transform="rotate(50.00000000)" /><use href="#tooth" transform="rotate(60.00000000)" /><use href="#tooth" transform="rotate(70.00000000)" /><use href="#tooth" transform="rotate(80.00000000)" /><use href="#tooth" transform="rotate(90.00000000)" /><use href="#tooth" transform="rotate(100.00000000)" /><use href="#tooth" transform="rotate(110.00000000)" /><use href="#tooth" transform="rotate(120.00000000)" /><use href="#tooth" transform="rotate(130.00000000)" /><use href="#tooth" transform="rotate(140.00000000)" /><use href="#tooth" transform="rotate(150.00000000)" /><use href="#tooth" transform="rotate(160.00000000)" /><use href="#tooth" transform="rotate(170.00000000)" /><use href="#tooth" transform="rotate(180.00000000)" /><use href="#tooth" transform="rotate(190.00000000)" /><use href="#tooth" transform="rotate(200.00000000)" /><use href="#tooth" transform="rotate(210.00000000)" /><use href="#tooth" transform="rotate(220.00000000)" /><use href="#tooth" transform="rotate(230.00000000)" /><use href="#tooth" transform="rotate(240.00000000)" /><use href="#tooth" transform="rotate(250.00000000)" /><use href="#tooth" transform="rotate(260.00000000)" /><use href="#tooth" transform="rotate(270.00000000)" /><use href="#tooth" transform="rotate(280.00000000)" /><use href="#tooth" transform="rotate(290.00000000)" /><use href="#tooth" transform="rotate(300.00000000)" /><use href="#tooth" transform="rotate(310.00000000)" /><use href="#tooth" transform="rotate(320.00000000)" /><use href="#tooth" transform="rotate(330.00000000)" /><use href="#tooth" transform="rotate(340.00000000)" /><use href="#tooth" transform="rotate(350.00000000)" /></g>
    <g id="silhouette"><circle r="16.7500"/><use href="#teeth"/></g>
    <mask id="skeleton">
      <use href="#silhouette" fill="#fff"/>
      <circle r="11.5575" fill="#000"/>
      <g fill="#fff"><path d="M0 -2.680 C0.779 -4.854 0.879 -9.477 0 -12.020 C-0.904 -9.477 -0.779 -4.854 0 -2.680Z" transform="rotate(0)" /><path d="M0 -2.680 C0.779 -4.854 0.879 -9.477 0 -12.020 C-0.904 -9.477 -0.779 -4.854 0 -2.680Z" transform="rotate(60)" /><path d="M0 -2.680 C0.779 -4.854 0.879 -9.477 0 -12.020 C-0.904 -9.477 -0.779 -4.854 0 -2.680Z" transform="rotate(120)" /><path d="M0 -2.680 C0.779 -4.854 0.879 -9.477 0 -12.020 C-0.904 -9.477 -0.779 -4.854 0 -2.680Z" transform="rotate(180)" /><path d="M0 -2.680 C0.779 -4.854 0.879 -9.477 0 -12.020 C-0.904 -9.477 -0.779 -4.854 0 -2.680Z" transform="rotate(240)" /><path d="M0 -2.680 C0.779 -4.854 0.879 -9.477 0 -12.020 C-0.904 -9.477 -0.779 -4.854 0 -2.680Z" transform="rotate(300)" /><circle r="2.6800"/></g>
    </mask>
  </defs>
  <g filter="url(#finish)">
    <g mask="url(#skeleton)" fill="url(#metal)"><use href="#silhouette"/></g>
    <circle r="15.9962" fill="none" stroke="#ffe1c6" stroke-width="0.2200" opacity=".82"/>
    <circle r="11.5575" fill="none" stroke="#6f2f22" stroke-width="0.3685"/>
    <g fill="none" stroke="#ffe1c6" stroke-width="0.1340" opacity=".72"><path d="M0 -2.894 Q2.047 -4.806 0 -8.899 Q-2.047 -4.806 0 -2.894" transform="rotate(0)" /><path d="M0 -2.894 Q2.047 -4.806 0 -8.899 Q-2.047 -4.806 0 -2.894" transform="rotate(60)" /><path d="M0 -2.894 Q2.047 -4.806 0 -8.899 Q-2.047 -4.806 0 -2.894" transform="rotate(120)" /><path d="M0 -2.894 Q2.047 -4.806 0 -8.899 Q-2.047 -4.806 0 -2.894" transform="rotate(180)" /><path d="M0 -2.894 Q2.047 -4.806 0 -8.899 Q-2.047 -4.806 0 -2.894" transform="rotate(240)" /><path d="M0 -2.894 Q2.047 -4.806 0 -8.899 Q-2.047 -4.806 0 -2.894" transform="rotate(300)" /></g>
    <circle r="3.1088" fill="url(#hub)" stroke="#ffe1c6" stroke-width="0.2948"/>
    <circle r="1.2328" fill="url(#jewel)" stroke="#ffd0ad" stroke-width="0.1876"/>
    <circle r="18.0000" fill="none" stroke="#ffd0ad" stroke-width=".12" opacity=".28" stroke-dasharray=".45 .8"/>
  </g>
</svg>