<?xml version="1.0" encoding="UTF-8"?>
<svg xmlns="http://www.w3.org/2000/svg" viewBox="-66.300 -66.300 132.600 132.600" data-teeth="125" data-material="steel" role="img" aria-label="125-tooth steel mechanical watch gear">
  <title>125 tooth steel SCIENTIA gear asset</title>
  <metadata>Exact involute tooth count: 125; pressure angle: 20 degrees; module: 1 normalized; original deterministic artwork.</metadata>
  <defs>
    <linearGradient id="metal" x1="0" y1="0" x2="1" y2="1">
      <stop offset="0" stop-color="#0c1115"/><stop offset=".16" stop-color="#f2f6f5"/><stop offset=".36" stop-color="#263139"/><stop offset=".58" stop-color="#d9e6e8"/><stop offset=".8" stop-color="#77858c"/><stop offset="1" stop-color="#030506"/>
    </linearGradient>
    <radialGradient id="hub" cx="34%" cy="28%"><stop offset="0" stop-color="#f2f6f5"/><stop offset=".28" stop-color="#77858c"/><stop offset=".66" stop-color="#263139"/><stop offset="1" stop-color="#0c1115"/></radialGradient>
    <radialGradient id="jewel" cx="32%" cy="25%"><stop offset="0" stop-color="#fff"/><stop offset=".18" stop-color="#8de8ff"/><stop offset=".55" stop-color="#0b286b"/><stop offset="1" stop-color="#050208"/></radialGradient>
    <filter id="finish" x="-18%" y="-18%" width="136%" height="136%">
      <feTurbulence type="fractalNoise" baseFrequency=".9" numOctaves="2" seed="125" result="grain"/>
      <feComposite in="grain" in2="SourceAlpha" operator="in" result="cutGrain"/>
      <feColorMatrix in="cutGrain" values="1 0 0 0 .25  0 1 0 0 .2  0 0 1 0 .12  0 0 0 .16 0" result="tintedGrain"/>
      <feMerge><feMergeNode in="SourceGraphic"/><feMergeNode in="tintedGrain"/></feMerge>
      <feDropShadow dx=".25" dy=".5" stdDeviation=".55" flood-color="#000" flood-opacity=".72"/>
    </filter>
    <path id="tooth" d="M-1.5392 -61.2307L-1.1791 -61.2386L-1.1791 -61.2386L-1.0482 -61.6911L-0.9049 -62.1434L-0.7500 -62.5955L-0.5838 -63.0473L-0.4070 -63.4987L0.4070 -63.4987L0.4070 -63.4987L0.5838 -63.0473L0.7500 -62.5955L0.9049 -62.1434L1.0482 -61.6911L1.1791 -61.2386L1.1791 -61.2386L1.5392 -61.2307Z"/>
    <g id="teeth"><use href="#tooth" transform="rotate(0.00000000)" /><use href="#tooth" transform="rotate(2.88000000)" /><use href="#tooth" transform="rotate(5.76000000)" /><use href="#tooth" transform="rotate(8.64000000)" /><use href="#tooth" transform="rotate(11.52000000)" /><use href="#tooth" transform="rotate(14.40000000)" /><use href="#tooth" transform="rotate(17.28000000)" /><use href="#tooth" transform="rotate(20.16000000)" /><use href="#tooth" transform="rotate(23.04000000)" /><use href="#tooth" transform="rotate(25.92000000)" /><use href="#tooth" transform="rotate(28.80000000)" /><use href="#tooth" transform="rotate(31.68000000)" /><use href="#tooth" transform="rotate(34.56000000)" /><use href="#tooth" transform="rotate(37.44000000)" /><use href="#tooth" transform="rotate(40.32000000)" /><use href="#tooth" transform="rotate(43.20000000)" /><use href="#tooth" transform="rotate(46.08000000)" /><use href="#tooth" transform="rotate(48.96000000)" /><use href="#tooth" transform="rotate(51.84000000)" /><use href="#tooth" transform="rotate(54.72000000)" /><use href="#tooth" transform="rotate(57.60000000)" /><use href="#tooth" transform="rotate(60.48000000)" /><use href="#tooth" transform="rotate(63.36000000)" /><use href="#tooth" transform="rotate(66.24000000)" /><use href="#tooth" transform="rotate(69.12000000)" /><use href="#tooth" transform="rotate(72.00000000)" /><use href="#tooth" transform="rotate(74.88000000)" /><use href="#tooth" transform="rotate(77.76000000)" /><use href="#tooth" transform="rotate(80.64000000)" /><use href="#tooth" transform="rotate(83.52000000)" /><use href="#tooth" transform="rotate(86.40000000)" /><use href="#tooth" transform="rotate(89.28000000)" /><use href="#tooth" transform="rotate(92.16000000)" /><use href="#tooth" transform="rotate(95.04000000)" /><use href="#tooth" transform="rotate(97.92000000)" /><use href="#tooth" transform="rotate(100.80000000)" /><use href="#tooth" transform="rotate(103.68000000)" /><use href="#tooth" transform="rotate(106.56000000)" /><use href="#tooth" transform="rotate(109.44000000)" /><use href="#tooth" transform="rotate(112.32000000)" /><use href="#tooth" transform="rotate(115.20000000)" /><use href="#tooth" transform="rotate(118.08000000)" /><use href="#tooth" transform="rotate(120.96000000)" /><use href="#tooth" transform="rotate(123.84000000)" /><use href="#tooth" transform="rotate(126.72000000)" /><use href="#tooth" transform="rotate(129.60000000)" /><use href="#tooth" transform="rotate(132.48000000)" /><use href="#tooth" transform="rotate(135.36000000)" /><use href="#tooth" transform="rotate(138.24000000)" /><use href="#tooth" transform="rotate(141.12000000)" /><use href="#tooth" transform="rotate(144.00000000)" /><use href="#tooth" transform="rotate(146.88000000)" /><use href="#tooth" transform="rotate(149.76000000)" /><use href="#tooth" transform="rotate(152.64000000)" /><use href="#tooth" transform="rotate(155.52000000)" /><use href="#tooth" transform="rotate(158.40000000)" /><use href="#tooth" transform="rotate(161.28000000)" /><use href="#tooth" transform="rotate(164.16000000)" /><use href="#tooth" transform="rotate(167.04000000)" /><use href="#tooth" transform="rotate(169.92000000)" /><use href="#tooth" transform="rotate(172.80000000)" /><use href="#tooth" transform="rotate(175.68000000)" /><use href="#tooth" transform="rotate(178.56000000)" /><use href="#tooth" transform="rotate(181.44000000)" /><use href="#tooth" transform="rotate(184.32000000)" /><use href="#tooth" transform="rotate(187.20000000)" /><use href="#tooth" transform="rotate(190.08000000)" /><use href="#tooth" transform="rotate(192.96000000)" /><use href="#tooth" transform="rotate(195.84000000)" /><use href="#tooth" transform="rotate(198.72000000)" /><use href="#tooth" transform="rotate(201.60000000)" /><use href="#tooth" transform="rotate(204.48000000)" /><use href="#tooth" transform="rotate(207.36000000)" /><use href="#tooth" transform="rotate(210.24000000)" /><use href="#tooth" transform="rotate(213.12000000)" /><use href="#tooth" transform="rotate(216.00000000)" /><use href="#tooth" transform="rotate(218.88000000)" /><use href="#tooth" transform="rotate(221.76000000)" /><use href="#tooth" transform="rotate(224.64000000)" /><use href="#tooth" transform="rotate(227.52000000)" /><use href="#tooth" transform="rotate(230.40000000)" /><use href="#tooth" transform="rotate(233.28000000)" /><use href="#tooth" transform="rotate(236.16000000)" /><use href="#tooth" transform="rotate(239.04000000)" /><use href="#tooth" transform="rotate(241.92000000)" /><use href="#tooth" transform="rotate(244.80000000)" /><use href="#tooth" transform="rotate(247.68000000)" /><use href="#tooth" transform="rotate(250.56000000)" /><use href="#tooth" transform="rotate(253.44000000)" /><use href="#tooth" transform="rotate(256.32000000)" /><use href="#tooth" transform="rotate(259.20000000)" /><use href="#tooth" transform="rotate(262.08000000)" /><use href="#tooth" transform="rotate(264.96000000)" /><use href="#tooth" transform="rotate(267.84000000)" /><use href="#tooth" transform="rotate(270.72000000)" /><use href="#tooth" transform="rotate(273.60000000)" /><use href="#tooth" transform="rotate(276.48000000)" /><use href="#tooth" transform="rotate(279.36000000)" /><use href="#tooth" transform="rotate(282.24000000)" /><use href="#tooth" transform="rotate(285.12000000)" /><use href="#tooth" transform="rotate(288.00000000)" /><use href="#tooth" transform="rotate(290.88000000)" /><use href="#tooth" transform="rotate(293.76000000)" /><use href="#tooth" transform="rotate(296.64000000)" /><use href="#tooth" transform="rotate(299.52000000)" /><use href="#tooth" transform="rotate(302.40000000)" /><use href="#tooth" transform="rotate(305.28000000)" /><use href="#tooth" transform="rotate(308.16000000)" /><use href="#tooth" transform="rotate(311.04000000)" /><use href="#tooth" transform="rotate(313.92000000)" /><use href="#tooth" transform="rotate(316.80000000)" /><use href="#tooth" transform="rotate(319.68000000)" /><use href="#tooth" transform="rotate(322.56000000)" /><use href="#tooth" transform="rotate(325.44000000)" /><use href="#tooth" transform="rotate(328.32000000)" /><use href="#tooth" transform="rotate(331.20000000)" /><use href="#tooth" transform="rotate(334.08000000)" /><use href="#tooth" transform="rotate(336.96000000)" /><use href="#tooth" transform="rotate(339.84000000)" /><use href="#tooth" transform="rotate(342.72000000)" /><use href="#tooth" transform="rotate(345.60000000)" /><use href="#tooth" transform="rotate(348.48000000)" /><use href="#tooth" transform="rotate(351.36000000)" /><use href="#tooth" transform="rotate(354.24000000)" /><use href="#tooth" transform="rotate(357.12000000)" /></g>
    <g id="silhouette"><circle r="61.2500"/><use href="#teeth"/></g>
    <mask id="skeleton">
      <use href="#silhouette" fill="#fff"/>
      <circle r="42.2625" fill="#000"/>
      <g fill="#fff"><path d="M0 -9.800 C2.848 -17.750 3.216 -34.655 0 -43.953 C-3.307 -34.655 -2.848 -17.750 0 -9.800Z" transform="rotate(0)" /><path d="M0 -9.800 C2.848 -17.750 3.216 -34.655 0 -43.953 C-3.307 -34.655 -2.848 -17.750 0 -9.800Z" transform="rotate(36)" /><path d="M0 -9.800 C2.848 -17.750 3.216 -34.655 0 -43.953 C-3.307 -34.655 -2.848 -17.750 0 -9.800Z" transform="rotate(72)" /><path d="M0 -9.800 C2.848 -17.750 3.216 -34.655 0 -43.953 C-3.307 -34.655 -2.848 -17.750 0 -9.800Z" transform="rotate(108)" /><path d="M0 -9.800 C2.848 -17.750 3.216 -34.655 0 -43.953 C-3.307 -34.655 -2.848 -17.750 0 -9.800Z" transform="rotate(144)" /><path d="M0 -9.800 C2.848 -17.750 3.216 -34.655 0 -43.953 C-3.307 -34.655 -2.848 -17.750 0 -9.800Z" transform="rotate(180)" /><path d="M0 -9.800 C2.848 -17.750 3.216 -34.655 0 -43.953 C-3.307 -34.655 -2.848 -17.750 0 -9.800Z" transform="rotate(216)" /><path d="M0 -9.800 C2.848 -17.750 3.216 -34.655 0 -43.953 C-3.307 -34.655 -2.848 -17.750 0 -9.800Z" transform="rotate(252)" /><path d="M0 -9.800 C2.848 -17.750 3.216 -34.655 0 -43.953 C-3.307 -34.655 -2.848 -17.750 0 -9.800Z" transform="rotate(288)" /><path d="M0 -9.800 C2.848 -17.750 3.216 -34.655 0 -43.953 C-3.307 -34.655 -2.848 -17.750 0 -9.800Z" transform="rotate(324)" /><circle r="9.8000"/></g>
    </mask>
  </defs>
  <g filter="url(#finish)">
    <g mask="url(#skeleton)" fill="url(#metal)"><use href="#silhouette"/></g>
    <circle r="58.4937" fill="none" stroke="#d9e6e8" stroke-width="0.7350" opacity=".82"/>
    <circle r="42.2625" fill="none" stroke="#263139" stroke-width="1.3475"/>
    <g fill="none" stroke="#d9e6e8" stroke-width="0.4900" opacity=".72"><path d="M0 -10.584 Q7.485 -17.573 0 -32.542 Q-7.485 -17.573 0 -10.584" transform="rotate(0)" /><path d="M0 -10.584 Q7.485 -17.573 0 -32.542 Q-7.485 -17.573 0 -10.584" transform="rotate(36)" /><path d="M0 -10.584 Q7.485 -17.573 0 -32.542 Q-7.485 -17.573 0 -10.584" transform="rotate(72)" /><path d="M0 -10.584 Q7.485 -17.573 0 -32.542 Q-7.485 -17.573 0 -10.584" transform="rotate(108)" /><path d="M0 -10.584 Q7.485 -17.573 0 -32.542 Q-7.485 -17.573 0 -10.584" transform="rotate(144)" /><path d="M0 -10.584 Q7.485 -17.573 0 -32.542 Q-7.485 -17.573 0 -10.584" transform="rotate(180)" /><path d="M0 -10.584 Q7.485 -17.573 0 -32.542 Q-7.485 -17.573 0 -10.584" transform="rotate(216)" /><path d="M0 -10.584 Q7.485 -17.573 0 -32.542 Q-7.485 -17.573 0 -10.584" transform="rotate(252)" /><path d="M0 -10.584 Q7.485 -17.573 0 -32.542 Q-7.485 -17.573 0 -10.584" transform="rotate(288)" /><path d="M0 -10.584 Q7.485 -17.573 0 -32.542 Q-7.485 -17.573 0 -10.584" transform="rotate(324)" /></g>
    <circle r="11.3680" fill="url(#hub)" stroke="#d9e6e8" stroke-width="1.0780"/>
    <circle r="4.5080" fill="url(#jewel)" stroke="#f2f6f5" stroke-width="0.6860"/>
    <circle r="62.5000" fill="none" stroke="#f2f6f5" stroke-width=".12" opacity=".28" stroke-dasharray=".45 .8"/>
  </g>
</svg>