<?xml version="1.0" encoding="UTF-8"?>
<svg xmlns="http://www.w3.org/2000/svg" viewBox="-83.300 -83.300 166.600 166.600" data-teeth="159" data-material="steel" role="img" aria-label="159-tooth steel mechanical watch gear">
  <title>159 tooth steel SCIENTIA gear asset</title>
  <metadata>Exact involute tooth count: 159; pressure angle: 20 degrees; module: 1 normalized; original deterministic artwork.</metadata>
  <defs>
    <linearGradient id="metal" x1="0" y1="0" x2="1" y2="1">
      <stop offset="0" stop-color="#0c1115"/><stop offset=".16" stop-color="#f2f6f5"/><stop offset=".36" stop-color="#263139"/><stop offset=".58" stop-color="#d9e6e8"/><stop offset=".8" stop-color="#77858c"/><stop offset="1" stop-color="#030506"/>
    </linearGradient>
    <radialGradient id="hub" cx="34%" cy="28%"><stop offset="0" stop-color="#f2f6f5"/><stop offset=".28" stop-color="#77858c"/><stop offset=".66" stop-color="#263139"/><stop offset="1" stop-color="#0c1115"/></radialGradient>
    <radialGradient id="jewel" cx="32%" cy="25%"><stop offset="0" stop-color="#fff"/><stop offset=".18" stop-color="#8de8ff"/><stop offset=".55" stop-color="#0b286b"/><stop offset="1" stop-color="#050208"/></radialGradient>
    <filter id="finish" x="-18%" y="-18%" width="136%" height="136%">
      <feTurbulence type="fractalNoise" baseFrequency=".9" numOctaves="2" seed="159" result="grain"/>
      <feComposite in="grain" in2="SourceAlpha" operator="in" result="cutGrain"/>
      <feColorMatrix in="cutGrain" values="1 0 0 0 .25  0 1 0 0 .2  0 0 1 0 .12  0 0 0 .16 0" result="tintedGrain"/>
      <feMerge><feMergeNode in="SourceGraphic"/><feMergeNode in="tintedGrain"/></feMerge>
      <feDropShadow dx=".25" dy=".5" stdDeviation=".55" flood-color="#000" flood-opacity=".72"/>
    </filter>
    <path id="tooth" d="M-1.5460 -78.2347L-1.1926 -78.2409L-1.1926 -78.2409L-1.0543 -78.6929L-0.9066 -79.1448L-0.7498 -79.5965L-0.5841 -80.0479L-0.4100 -80.4990L0.4100 -80.4990L0.4100 -80.4990L0.5841 -80.0479L0.7498 -79.5965L0.9066 -79.1448L1.0543 -78.6929L1.1926 -78.2409L1.1926 -78.2409L1.5460 -78.2347Z"/>
    <g id="teeth"><use href="#tooth" transform="rotate(0.00000000)" /><use href="#tooth" transform="rotate(2.26415094)" /><use href="#tooth" transform="rotate(4.52830189)" /><use href="#tooth" transform="rotate(6.79245283)" /><use href="#tooth" transform="rotate(9.05660377)" /><use href="#tooth" transform="rotate(11.32075472)" /><use href="#tooth" transform="rotate(13.58490566)" /><use href="#tooth" transform="rotate(15.84905660)" /><use href="#tooth" transform="rotate(18.11320755)" /><use href="#tooth" transform="rotate(20.37735849)" /><use href="#tooth" transform="rotate(22.64150943)" /><use href="#tooth" transform="rotate(24.90566038)" /><use href="#tooth" transform="rotate(27.16981132)" /><use href="#tooth" transform="rotate(29.43396226)" /><use href="#tooth" transform="rotate(31.69811321)" /><use href="#tooth" transform="rotate(33.96226415)" /><use href="#tooth" transform="rotate(36.22641509)" /><use href="#tooth" transform="rotate(38.49056604)" /><use href="#tooth" transform="rotate(40.75471698)" /><use href="#tooth" transform="rotate(43.01886792)" /><use href="#tooth" transform="rotate(45.28301887)" /><use href="#tooth" transform="rotate(47.54716981)" /><use href="#tooth" transform="rotate(49.81132075)" /><use href="#tooth" transform="rotate(52.07547170)" /><use href="#tooth" transform="rotate(54.33962264)" /><use href="#tooth" transform="rotate(56.60377358)" /><use href="#tooth" transform="rotate(58.86792453)" /><use href="#tooth" transform="rotate(61.13207547)" /><use href="#tooth" transform="rotate(63.39622642)" /><use href="#tooth" transform="rotate(65.66037736)" /><use href="#tooth" transform="rotate(67.92452830)" /><use href="#tooth" transform="rotate(70.18867925)" /><use href="#tooth" transform="rotate(72.45283019)" /><use href="#tooth" transform="rotate(74.71698113)" /><use href="#tooth" transform="rotate(76.98113208)" /><use href="#tooth" transform="rotate(79.24528302)" /><use href="#tooth" transform="rotate(81.50943396)" /><use href="#tooth" transform="rotate(83.77358491)" /><use href="#tooth" transform="rotate(86.03773585)" /><use href="#tooth" transform="rotate(88.30188679)" /><use href="#tooth" transform="rotate(90.56603774)" /><use href="#tooth" transform="rotate(92.83018868)" /><use href="#tooth" transform="rotate(95.09433962)" /><use href="#tooth" transform="rotate(97.35849057)" /><use href="#tooth" transform="rotate(99.62264151)" /><use href="#tooth" transform="rotate(101.88679245)" /><use href="#tooth" transform="rotate(104.15094340)" /><use href="#tooth" transform="rotate(106.41509434)" /><use href="#tooth" transform="rotate(108.67924528)" /><use href="#tooth" transform="rotate(110.94339623)" /><use href="#tooth" transform="rotate(113.20754717)" /><use href="#tooth" transform="rotate(115.47169811)" /><use href="#tooth" transform="rotate(117.73584906)" /><use href="#tooth" transform="rotate(120.00000000)" /><use href="#tooth" transform="rotate(122.26415094)" /><use href="#tooth" transform="rotate(124.52830189)" /><use href="#tooth" transform="rotate(126.79245283)" /><use href="#tooth" transform="rotate(129.05660377)" /><use href="#tooth" transform="rotate(131.32075472)" /><use href="#tooth" transform="rotate(133.58490566)" /><use href="#tooth" transform="rotate(135.84905660)" /><use href="#tooth" transform="rotate(138.11320755)" /><use href="#tooth" transform="rotate(140.37735849)" /><use href="#tooth" transform="rotate(142.64150943)" /><use href="#tooth" transform="rotate(144.90566038)" /><use href="#tooth" transform="rotate(147.16981132)" /><use href="#tooth" transform="rotate(149.43396226)" /><use href="#tooth" transform="rotate(151.69811321)" /><use href="#tooth" transform="rotate(153.96226415)" /><use href="#tooth" transform="rotate(156.22641509)" /><use href="#tooth" transform="rotate(158.49056604)" /><use href="#tooth" transform="rotate(160.75471698)" /><use href="#tooth" transform="rotate(163.01886792)" /><use href="#tooth" transform="rotate(165.28301887)" /><use href="#tooth" transform="rotate(167.54716981)" /><use href="#tooth" transform="rotate(169.81132075)" /><use href="#tooth" transform="rotate(172.07547170)" /><use href="#tooth" transform="rotate(174.33962264)" /><use href="#tooth" transform="rotate(176.60377358)" /><use href="#tooth" transform="rotate(178.86792453)" /><use href="#tooth" transform="rotate(181.13207547)" /><use href="#tooth" transform="rotate(183.39622642)" /><use href="#tooth" transform="rotate(185.66037736)" /><use href="#tooth" transform="rotate(187.92452830)" /><use href="#tooth" transform="rotate(190.18867925)" /><use href="#tooth" transform="rotate(192.45283019)" /><use href="#tooth" transform="rotate(194.71698113)" /><use href="#tooth" transform="rotate(196.98113208)" /><use href="#tooth" transform="rotate(199.24528302)" /><use href="#tooth" transform="rotate(201.50943396)" /><use href="#tooth" transform="rotate(203.77358491)" /><use href="#tooth" transform="rotate(206.03773585)" /><use href="#tooth" transform="rotate(208.30188679)" /><use href="#tooth" transform="rotate(210.56603774)" /><use href="#tooth" transform="rotate(212.83018868)" /><use href="#tooth" transform="rotate(215.09433962)" /><use href="#tooth" transform="rotate(217.35849057)" /><use href="#tooth" transform="rotate(219.62264151)" /><use href="#tooth" transform="rotate(221.88679245)" /><use href="#tooth" transform="rotate(224.15094340)" /><use href="#tooth" transform="rotate(226.41509434)" /><use href="#tooth" transform="rotate(228.67924528)" /><use href="#tooth" transform="rotate(230.94339623)" /><use href="#tooth" transform="rotate(233.20754717)" /><use href="#tooth" transform="rotate(235.47169811)" /><use href="#tooth" transform="rotate(237.73584906)" /><use href="#tooth" transform="rotate(240.00000000)" /><use href="#tooth" transform="rotate(242.26415094)" /><use href="#tooth" transform="rotate(244.52830189)" /><use href="#tooth" transform="rotate(246.79245283)" /><use href="#tooth" transform="rotate(249.05660377)" /><use href="#tooth" transform="rotate(251.32075472)" /><use href="#tooth" transform="rotate(253.58490566)" /><use href="#tooth" transform="rotate(255.84905660)" /><use href="#tooth" transform="rotate(258.11320755)" /><use href="#tooth" transform="rotate(260.37735849)" /><use href="#tooth" transform="rotate(262.64150943)" /><use href="#tooth" transform="rotate(264.90566038)" /><use href="#tooth" transform="rotate(267.16981132)" /><use href="#tooth" transform="rotate(269.43396226)" /><use href="#tooth" transform="rotate(271.69811321)" /><use href="#tooth" transform="rotate(273.96226415)" /><use href="#tooth" transform="rotate(276.22641509)" /><use href="#tooth" transform="rotate(278.49056604)" /><use href="#tooth" transform="rotate(280.75471698)" /><use href="#tooth" transform="rotate(283.01886792)" /><use href="#tooth" transform="rotate(285.28301887)" /><use href="#tooth" transform="rotate(287.54716981)" /><use href="#tooth" transform="rotate(289.81132075)" /><use href="#tooth" transform="rotate(292.07547170)" /><use href="#tooth" transform="rotate(294.33962264)" /><use href="#tooth" transform="rotate(296.60377358)" /><use href="#tooth" transform="rotate(298.86792453)" /><use href="#tooth" transform="rotate(301.13207547)" /><use href="#tooth" transform="rotate(303.39622642)" /><use href="#tooth" transform="rotate(305.66037736)" /><use href="#tooth" transform="rotate(307.92452830)" /><use href="#tooth" transform="rotate(310.18867925)" /><use href="#tooth" transform="rotate(312.45283019)" /><use href="#tooth" transform="rotate(314.71698113)" /><use href="#tooth" transform="rotate(316.98113208)" /><use href="#tooth" transform="rotate(319.24528302)" /><use href="#tooth" transform="rotate(321.50943396)" /><use href="#tooth" transform="rotate(323.77358491)" /><use href="#tooth" transform="rotate(326.03773585)" /><use href="#tooth" transform="rotate(328.30188679)" /><use href="#tooth" transform="rotate(330.56603774)" /><use href="#tooth" transform="rotate(332.83018868)" /><use href="#tooth" transform="rotate(335.09433962)" /><use href="#tooth" transform="rotate(337.35849057)" /><use href="#tooth" transform="rotate(339.62264151)" /><use href="#tooth" transform="rotate(341.88679245)" /><use href="#tooth" transform="rotate(344.15094340)" /><use href="#tooth" transform="rotate(346.41509434)" /><use href="#tooth" transform="rotate(348.67924528)" /><use href="#tooth" transform="rotate(350.94339623)" /><use href="#tooth" transform="rotate(353.20754717)" /><use href="#tooth" transform="rotate(355.47169811)" /><use href="#tooth" transform="rotate(357.73584906)" /></g>
    <g id="silhouette"><circle r="78.2500"/><use href="#teeth"/></g>
    <mask id="skeleton">
      <use href="#silhouette" fill="#fff"/>
      <circle r="53.9925" fill="#000"/>
      <g fill="#fff"><path d="M0 -12.520 C3.639 -22.677 4.108 -44.274 0 -56.152 C-4.225 -44.274 -3.639 -22.677 0 -12.520Z" transform="rotate(0)" /><path d="M0 -12.520 C3.639 -22.677 4.108 -44.274 0 -56.152 C-4.225 -44.274 -3.639 -22.677 0 -12.520Z" transform="rotate(36)" /><path d="M0 -12.520 C3.639 -22.677 4.108 -44.274 0 -56.152 C-4.225 -44.274 -3.639 -22.677 0 -12.520Z" transform="rotate(72)" /><path d="M0 -12.520 C3.639 -22.677 4.108 -44.274 0 -56.152 C-4.225 -44.274 -3.639 -22.677 0 -12.520Z" transform="rotate(108)" /><path d="M0 -12.520 C3.639 -22.677 4.108 -44.274 0 -56.152 C-4.225 -44.274 -3.639 -22.677 0 -12.520Z" transform="rotate(144)" /><path d="M0 -12.520 C3.639 -22.677 4.108 -44.274 0 -56.152 C-4.225 -44.274 -3.639 -22.677 0 -12.520Z" transform="rotate(180)" /><path d="M0 -12.520 C3.639 -22.677 4.108 -44.274 0 -56.152 C-4.225 -44.274 -3.639 -22.677 0 -12.520Z" transform="rotate(216)" /><path d="M0 -12.520 C3.639 -22.677 4.108 -44.274 0 -56.152 C-4.225 -44.274 -3.639 -22.677 0 -12.520Z" transform="rotate(252)" /><path d="M0 -12.520 C3.639 -22.677 4.108 -44.274 0 -56.152 C-4.225 -44.274 -3.639 -22.677 0 -12.520Z" transform="rotate(288)" /><path d="M0 -12.520 C3.639 -22.677 4.108 -44.274 0 -56.152 C-4.225 -44.274 -3.639 -22.677 0 -12.520Z" transform="rotate(324)" /><circle r="12.5200"/></g>
    </mask>
  </defs>
  <g filter="url(#finish)">
    <g mask="url(#skeleton)" fill="url(#metal)"><use href="#silhouette"/></g>
    <circle r="74.7287" fill="none" stroke="#d9e6e8" stroke-width="0.9390" opacity=".82"/>
    <circle r="53.9925" fill="none" stroke="#263139" stroke-width="1.7215"/>
    <g fill="none" stroke="#d9e6e8" stroke-width="0.6260" opacity=".72"><path d="M0 -13.522 Q9.562 -22.450 0 -41.574 Q-9.562 -22.450 0 -13.522" transform="rotate(0)" /><path d="M0 -13.522 Q9.562 -22.450 0 -41.574 Q-9.562 -22.450 0 -13.522" transform="rotate(36)" /><path d="M0 -13.522 Q9.562 -22.450 0 -41.574 Q-9.562 -22.450 0 -13.522" transform="rotate(72)" /><path d="M0 -13.522 Q9.562 -22.450 0 -41.574 Q-9.562 -22.450 0 -13.522" transform="rotate(108)" /><path d="M0 -13.522 Q9.562 -22.450 0 -41.574 Q-9.562 -22.450 0 -13.522" transform="rotate(144)" /><path d="M0 -13.522 Q9.562 -22.450 0 -41.574 Q-9.562 -22.450 0 -13.522" transform="rotate(180)" /><path d="M0 -13.522 Q9.562 -22.450 0 -41.574 Q-9.562 -22.450 0 -13.522" transform="rotate(216)" /><path d="M0 -13.522 Q9.562 -22.450 0 -41.574 Q-9.562 -22.450 0 -13.522" transform="rotate(252)" /><path d="M0 -13.522 Q9.562 -22.450 0 -41.574 Q-9.562 -22.450 0 -13.522" transform="rotate(288)" /><path d="M0 -13.522 Q9.562 -22.450 0 -41.574 Q-9.562 -22.450 0 -13.522" transform="rotate(324)" /></g>
    <circle r="14.5232" fill="url(#hub)" stroke="#d9e6e8" stroke-width="1.3772"/>
    <circle r="5.7592" fill="url(#jewel)" stroke="#f2f6f5" stroke-width="0.8764"/>
    <circle r="79.5000" fill="none" stroke="#f2f6f5" stroke-width=".12" opacity=".28" stroke-dasharray=".45 .8"/>
  </g>
</svg>